<svg id="Layer_1" data-name="Layer 1" xmlns="http://www.w3.org/2000/svg" viewBox="0 0 180.61 32"><defs><style>.cls-1{fill:#ca0000;}.cls-2{fill:#fff;}.cls-3{fill:#052d4d;}</style></defs><rect class="cls-1" width="32" height="32"/><path class="cls-2" d="M15.06,13.89V27.31H12.85V21.5H7.11v5.81H4.9V13.89H7.11v5.5h5.74v-5.5Z" transform="translate(-0.3 0.22)"/><path class="cls-2" d="M22.55,22.42H20v4.89H17.74V13.89h5.37a4.3,4.3,0,0,1,4.31,4.32,4.24,4.24,0,0,1-2.67,3.89l3.05,5.21H25.39Zm-2.6-2h3.16a2.25,2.25,0,0,0,0-4.49H20Z" transform="translate(-0.3 0.22)"/><path class="cls-3" d="M65.56,12.76l-.37-.1a.64.64,0,0,1-.51.27,17.06,17.06,0,0,1-2.32-.65,22.2,22.2,0,0,0-6-.71c-5.39,0-11.11,3.06-11.11,9.16S51,29.89,56.41,29.89c5,0,8.14-1.84,8.81-1.84.24,0,.37,0,.47.27l.41-.24-3.47-5.34-.37.23a1.31,1.31,0,0,1,.2.52c0,1-4.47,1.9-5.65,1.9-2.73,0-6.26-1.19-6.26-4.66s3.53-4.67,6.26-4.67,5.45.89,5.45,1.57a1.64,1.64,0,0,1-.07.51l.34.24Z" transform="translate(-0.3 0.22)"/><path class="cls-3" d="M76.36,12.79c0-.3.1-.54.94-.61v-.41H70.37v.41c.84.07.94.31.94.61V28.66c0,.31-.1.55-.94.61v.41H87.94c.37,0,.5.17.6.89h.4v-6h-.4c-.1.78-.23,1-.6,1H76.36Z" transform="translate(-0.3 0.22)"/><path class="cls-3" d="M103.63,15l3.26,8.11h-6.26Zm4.14,10.83c.13.44,1.14,2.93,1.14,3.07s-.17.37-.64.4v.41h6.63v-.41c-.4,0-.6-.2-.94-1-2.09-5.17-6.23-15.35-6.23-15.63s.24-.41.61-.44v-.41H99.56v.41c.3,0,.67.1.67.34s-5.69,15.19-6,16a1,1,0,0,1-.87.78v.41h5.95v-.41c-.47,0-.6-.13-.6-.34a30.63,30.63,0,0,1,1.07-3.13Z" transform="translate(-0.3 0.22)"/><path class="cls-3" d="M126.83,22.94h3.29c.44.72,4,5.41,4,5.72s-.27.58-.74.61v.41h7v-.41a1.15,1.15,0,0,1-1-.61l-4-5.65c2.79-.78,4.81-2.45,4.81-5.59,0-3.88-2.12-5.65-7.1-5.65H120.84v.41c.84.07.94.31.94.61V28.66c0,.31-.1.55-.94.61v.41h6.93v-.41c-.84-.06-.94-.3-.94-.61Zm0-7.35h5.65c2,0,2.59.88,2.59,1.87s-.61,1.87-2.59,1.87h-5.65Z" transform="translate(-0.3 0.22)"/><path class="cls-3" d="M152.43,29.68v-.41c-.84-.06-.94-.3-.94-.61V12.79c0-.3.1-.54.94-.61v-.41H145.5v.41c.84.07.94.31.94.61V28.66c0,.31-.1.55-.94.61v.41Z" transform="translate(-0.3 0.22)"/><path class="cls-3" d="M161.06,28.66c0,.31-.1.55-.94.61v.41h6.39v-.41c-.84-.06-.94-.3-.94-.61V18c8.88,10,9.72,10.49,9.72,10.93,0,.24-.16.37-.77.37v.41h6.39v-.41c-.84-.06-.94-.3-.94-.61V12.79c0-.3.1-.54.94-.61v-.41h-6.15v.41c.43,0,.7.21.7.61v9.09c-2.35-2.62-8.18-8.88-8.18-9.26,0-.2.17-.41.95-.44v-.41h-8.11v.41c.84.07.94.31.94.61V28.66Z" transform="translate(-0.3 0.22)"/></svg>