<svg id="Layer_1" data-name="Layer 1" xmlns="http://www.w3.org/2000/svg" viewBox="0 0 31 31"><defs><style>.cls-1{fill:#fff;}</style></defs><path class="cls-1" d="M31,15.44A15.5,15.5,0,1,1,15.4,0,15.5,15.5,0,0,1,31,15.44Zm-7.93.72c-.29,2.22-.56,4.35-.84,6.48l4.34,1.83a14.14,14.14,0,0,0,3.16-8.31Zm-.83-7.81c.28,2.17.55,4.33.83,6.49h6.67a14.05,14.05,0,0,0-3.18-8.31ZM4.42,24.47l4.3-1.81c-.28-2.17-.55-4.33-.83-6.47H1.25A14.3,14.3,0,0,0,4.42,24.47ZM1.26,14.83H7.89c.29-2.2.56-4.34.84-6.49L4.43,6.53A14.24,14.24,0,0,0,1.26,14.83ZM14.84,9.37,9.92,8.7l-.75,6.12h5.67Zm0,6.8H9.15c.27,2.1.53,4.12.79,6.12l4.9-.67Zm7-1.32c-.28-2.12-.54-4.14-.79-6.14l-4.87.66v5.48Zm-5.66,6.77,4.88.67c.25-2,.5-4.05.76-6.11H16.16Zm-1.32,8.09V22.88l-4.5.62C11.33,26,12.19,28.44,14.84,29.71Zm0-28.47c-2.62,1.38-3.56,3.7-4.48,6.28l4.48.59Zm1.31,28.48c2.59-1.34,3.5-3.68,4.46-6.25l-4.46-.58Zm0-28.41v6.8l4.45-.6C19.63,5,18.77,2.59,16.16,1.31ZM22,7.11l3.73-1.56A14.25,14.25,0,0,0,19.2,1.74ZM19.2,29.26a14,14,0,0,0,6.51-3.83L22,23.9ZM9,7.09c1-1.91,1.88-3.65,2.76-5.34A13.87,13.87,0,0,0,5.31,5.57ZM5.35,25.4c1.53,1.81,4.9,3.72,6.36,3.78L9,23.91Z" transform="translate(0 0)"/></svg>