<svg id="Layer_1" data-name="Layer 1" xmlns="http://www.w3.org/2000/svg" viewBox="0 0 31.23 31">
<defs>
<style>.cls-1{fill:#052d4d;}</style>
</defs>
<path class="cls-1" d="M31.57,13.61a12.79,12.79,0,0,1-9.84,11.65,12.46,12.46,0,0,1-3.65.32,12.74,12.74,0,0,1-6.18-2l-.1-.06-.11.11q-3.54,3.53-7.06,7.06a1.27,1.27,0,0,1-.42.31H3.82l0,0a2.74,2.74,0,0,1-1.2-.64l-.23-.21Q1.79,29.56,1.23,29a3.17,3.17,0,0,1-.7-1,4.31,4.31,0,0,1-.15-.43v-.41a.86.86,0,0,1,.26-.36L7.8,19.63l.13-.1-.1-.15a13,13,0,0,1-1.64-4.47A13.22,13.22,0,0,1,6,12.1,12.8,12.8,0,0,1,15.35.48,12.27,12.27,0,0,1,17.83.05l.39,0,.1,0h1l.15,0A12.8,12.8,0,0,1,31.21,9.64,13.24,13.24,0,0,1,31.57,12c0,.1,0,.2.05.31v1A2.87,2.87,0,0,0,31.57,13.61ZM18.81,4.26a8.55,8.55,0,1,0,8.55,8.53A8.54,8.54,0,0,0,18.81,4.26Z" transform="translate(-0.38)"/>
</svg>